<mxfile host="app.diagrams.net" agent="Mozilla/5.0 (Windows NT 10.0; Win64; x64) AppleWebKit/537.36 (KHTML, like Gecko) Chrome/133.0.0.0 Safari/537.36" version="26.0.11">
  <diagram name="Page-1" id="7VoN-sP6tUPMxPLqApK_">
    <mxGraphModel dx="1077" dy="601" grid="1" gridSize="10" guides="1" tooltips="1" connect="1" arrows="1" fold="1" page="1" pageScale="1" pageWidth="850" pageHeight="1100" math="0" shadow="0">
      <root>
        <mxCell id="0" />
        <mxCell id="1" parent="0" />
        <mxCell id="J54j-rkk1pIBrl5uMUaP-1" value="Project" style="rounded=1;whiteSpace=wrap;html=1;absoluteArcSize=1;arcSize=14;strokeWidth=2;" vertex="1" parent="1">
          <mxGeometry x="350" y="10" width="130" height="40" as="geometry" />
        </mxCell>
        <mxCell id="J54j-rkk1pIBrl5uMUaP-3" value="AdminControl" style="rounded=1;whiteSpace=wrap;html=1;absoluteArcSize=1;arcSize=14;strokeWidth=2;" vertex="1" parent="1">
          <mxGeometry x="350" y="90" width="130" height="40" as="geometry" />
        </mxCell>
        <mxCell id="J54j-rkk1pIBrl5uMUaP-4" value="" style="shape=link;html=1;rounded=0;entryX=0.5;entryY=0;entryDx=0;entryDy=0;exitX=0.5;exitY=1;exitDx=0;exitDy=0;" edge="1" parent="1" source="J54j-rkk1pIBrl5uMUaP-1" target="J54j-rkk1pIBrl5uMUaP-3">
          <mxGeometry width="100" relative="1" as="geometry">
            <mxPoint x="390" y="60" as="sourcePoint" />
            <mxPoint x="490" y="60" as="targetPoint" />
          </mxGeometry>
        </mxCell>
        <mxCell id="J54j-rkk1pIBrl5uMUaP-5" value="" style="strokeWidth=2;html=1;shape=mxgraph.flowchart.annotation_2;align=left;labelPosition=right;pointerEvents=1;rotation=90;" vertex="1" parent="1">
          <mxGeometry x="390" y="-36" width="50" height="384" as="geometry" />
        </mxCell>
        <mxCell id="J54j-rkk1pIBrl5uMUaP-6" value="Card" style="rounded=1;whiteSpace=wrap;html=1;absoluteArcSize=1;arcSize=14;strokeWidth=2;" vertex="1" parent="1">
          <mxGeometry x="183" y="180" width="80" height="40" as="geometry" />
        </mxCell>
        <mxCell id="J54j-rkk1pIBrl5uMUaP-7" value="Floor" style="rounded=1;whiteSpace=wrap;html=1;absoluteArcSize=1;arcSize=14;strokeWidth=2;" vertex="1" parent="1">
          <mxGeometry x="567" y="180" width="80" height="40" as="geometry" />
        </mxCell>
        <mxCell id="J54j-rkk1pIBrl5uMUaP-8" value="" style="html=1;shadow=0;dashed=0;align=center;verticalAlign=middle;shape=mxgraph.arrows2.arrow;dy=0.6;dx=40;notch=0;" vertex="1" parent="1">
          <mxGeometry x="159" y="240" width="17" height="10" as="geometry" />
        </mxCell>
        <mxCell id="J54j-rkk1pIBrl5uMUaP-9" value="" style="html=1;shadow=0;dashed=0;align=center;verticalAlign=middle;shape=mxgraph.arrows2.arrow;dy=0.6;dx=40;notch=0;" vertex="1" parent="1">
          <mxGeometry x="159" y="280" width="17" height="10" as="geometry" />
        </mxCell>
        <mxCell id="J54j-rkk1pIBrl5uMUaP-10" value="" style="html=1;shadow=0;dashed=0;align=center;verticalAlign=middle;shape=mxgraph.arrows2.arrow;dy=0.6;dx=40;notch=0;" vertex="1" parent="1">
          <mxGeometry x="159" y="320" width="17" height="10" as="geometry" />
        </mxCell>
        <mxCell id="J54j-rkk1pIBrl5uMUaP-11" value="" style="html=1;shadow=0;dashed=0;align=center;verticalAlign=middle;shape=mxgraph.arrows2.arrow;dy=0.6;dx=40;notch=0;" vertex="1" parent="1">
          <mxGeometry x="159" y="400" width="17" height="10" as="geometry" />
        </mxCell>
        <mxCell id="J54j-rkk1pIBrl5uMUaP-12" value="" style="html=1;shadow=0;dashed=0;align=center;verticalAlign=middle;shape=mxgraph.arrows2.arrow;dy=0.6;dx=40;notch=0;" vertex="1" parent="1">
          <mxGeometry x="159" y="360" width="17" height="10" as="geometry" />
        </mxCell>
        <mxCell id="J54j-rkk1pIBrl5uMUaP-13" value="CardDe" style="text;html=1;align=center;verticalAlign=middle;whiteSpace=wrap;rounded=0;" vertex="1" parent="1">
          <mxGeometry x="183" y="230" width="60" height="30" as="geometry" />
        </mxCell>
        <mxCell id="J54j-rkk1pIBrl5uMUaP-14" value="Employee" style="text;html=1;align=center;verticalAlign=middle;whiteSpace=wrap;rounded=0;" vertex="1" parent="1">
          <mxGeometry x="183" y="270" width="60" height="30" as="geometry" />
        </mxCell>
        <mxCell id="J54j-rkk1pIBrl5uMUaP-15" value="Visitor" style="text;html=1;align=center;verticalAlign=middle;whiteSpace=wrap;rounded=0;" vertex="1" parent="1">
          <mxGeometry x="183" y="310" width="60" height="30" as="geometry" />
        </mxCell>
        <mxCell id="J54j-rkk1pIBrl5uMUaP-17" value="" style="html=1;shadow=0;dashed=0;align=center;verticalAlign=middle;shape=mxgraph.arrows2.arrow;dy=0.6;dx=40;notch=0;" vertex="1" parent="1">
          <mxGeometry x="550" y="240" width="17" height="10" as="geometry" />
        </mxCell>
        <mxCell id="J54j-rkk1pIBrl5uMUaP-18" value="" style="html=1;shadow=0;dashed=0;align=center;verticalAlign=middle;shape=mxgraph.arrows2.arrow;dy=0.6;dx=40;notch=0;" vertex="1" parent="1">
          <mxGeometry x="550" y="280" width="17" height="10" as="geometry" />
        </mxCell>
        <mxCell id="J54j-rkk1pIBrl5uMUaP-19" value="" style="html=1;shadow=0;dashed=0;align=center;verticalAlign=middle;shape=mxgraph.arrows2.arrow;dy=0.6;dx=40;notch=0;" vertex="1" parent="1">
          <mxGeometry x="550" y="320" width="17" height="10" as="geometry" />
        </mxCell>
        <mxCell id="J54j-rkk1pIBrl5uMUaP-20" value="" style="html=1;shadow=0;dashed=0;align=center;verticalAlign=middle;shape=mxgraph.arrows2.arrow;dy=0.6;dx=40;notch=0;" vertex="1" parent="1">
          <mxGeometry x="550" y="400" width="17" height="10" as="geometry" />
        </mxCell>
        <mxCell id="J54j-rkk1pIBrl5uMUaP-21" value="" style="html=1;shadow=0;dashed=0;align=center;verticalAlign=middle;shape=mxgraph.arrows2.arrow;dy=0.6;dx=40;notch=0;" vertex="1" parent="1">
          <mxGeometry x="550" y="360" width="17" height="10" as="geometry" />
        </mxCell>
        <mxCell id="J54j-rkk1pIBrl5uMUaP-22" value="levelFloor" style="text;html=1;align=center;verticalAlign=middle;whiteSpace=wrap;rounded=0;" vertex="1" parent="1">
          <mxGeometry x="577" y="230" width="60" height="30" as="geometry" />
        </mxCell>
        <mxCell id="J54j-rkk1pIBrl5uMUaP-23" value="room" style="text;html=1;align=center;verticalAlign=middle;whiteSpace=wrap;rounded=0;" vertex="1" parent="1">
          <mxGeometry x="577" y="270" width="60" height="30" as="geometry" />
        </mxCell>
      </root>
    </mxGraphModel>
  </diagram>
</mxfile>
